<?xml version="1.0" encoding="UTF-8" standalone="no"?>
<!-- Generator: Adobe Illustrator 23.0.2, SVG Export Plug-In . SVG Version: 6.00 Build 0)  -->

<svg
   xmlns:dc="http://purl.org/dc/elements/1.1/"
   xmlns:cc="http://creativecommons.org/ns#"
   xmlns:rdf="http://www.w3.org/1999/02/22-rdf-syntax-ns#"
   xmlns:svg="http://www.w3.org/2000/svg"
   xmlns="http://www.w3.org/2000/svg"
   xmlns:sodipodi="http://sodipodi.sourceforge.net/DTD/sodipodi-0.dtd"
   xmlns:inkscape="http://www.inkscape.org/namespaces/inkscape"
   version="1.1"
   id="Layer_1"
   x="0px"
   y="0px"
   viewBox="0 0 100 100"
   xml:space="preserve"
   sodipodi:docname="svelte.svg"
   width="100"
   height="100"
   inkscape:version="0.92.3 (2405546, 2018-03-11)"><metadata
   id="metadata13"><rdf:RDF><cc:Work
       rdf:about=""><dc:format>image/svg+xml</dc:format><dc:type
         rdf:resource="http://purl.org/dc/dcmitype/StillImage" /><dc:title></dc:title></cc:Work></rdf:RDF></metadata><defs
   id="defs11" /><sodipodi:namedview
   pagecolor="#ffffff"
   bordercolor="#666666"
   borderopacity="1"
   objecttolerance="10"
   gridtolerance="10"
   guidetolerance="10"
   inkscape:pageopacity="0"
   inkscape:pageshadow="2"
   inkscape:window-width="1920"
   inkscape:window-height="1017"
   id="namedview9"
   showgrid="false"
   inkscape:zoom="2"
   inkscape:cx="-13.200001"
   inkscape:cy="59"
   inkscape:window-x="-8"
   inkscape:window-y="-8"
   inkscape:window-maximized="1"
   inkscape:current-layer="Layer_1" />
<style
   type="text/css"
   id="style2">
	.st0{fill:#FF3E00;}
	.st1{fill:#FFFFFF;}
</style>

<g
   id="g4525"
   transform="matrix(0.67056521,0,0,0.72017312,17.124821,20.472902)"><path
     style="fill:#ff3e00"
     inkscape:connector-curvature="0"
     id="path4"
     d="M 91.8,-2.4 C 80.9,-18.1 59.2,-22.7 43.6,-12.8 L 16.1,4.8 C 8.6,9.5 3.4,17.2 1.9,25.9 0.6,33.2 1.7,40.7 5.2,47.2 2.8,50.8 1.2,54.8 0.5,59 -1.1,67.9 1,77.1 6.2,84.4 c 11,15.7 32.6,20.3 48.2,10.4 L 81.9,77.3 c 7.5,-4.7 12.7,-12.4 14.2,-21.1 1.3,-7.3 0.2,-14.8 -3.3,-21.3 2.4,-3.6 4,-7.6 4.7,-11.8 1.7,-9 -0.4,-18.2 -5.7,-25.5"
     class="st0" /><path
     style="fill:#ffffff"
     inkscape:connector-curvature="0"
     id="path6"
     d="M 40.9,85.9 C 32,88.2 22.7,84.7 17.5,77.2 14.3,72.8 13.1,67.3 14,61.9 14.2,61 14.4,60.2 14.6,59.3 l 0.5,-1.6 1.4,1 c 3.3,2.4 6.9,4.2 10.8,5.4 l 1,0.3 -0.1,1 c -0.1,1.4 0.3,2.9 1.1,4.1 1.6,2.3 4.4,3.4 7.1,2.7 0.6,-0.2 1.2,-0.4 1.7,-0.7 L 65.5,54 c 1.4,-0.9 2.3,-2.2 2.6,-3.8 0.3,-1.6 -0.1,-3.3 -1,-4.6 -1.6,-2.3 -4.4,-3.3 -7.1,-2.6 -0.6,0.2 -1.2,0.4 -1.7,0.7 l -10.5,6.7 c -1.7,1.1 -3.6,1.9 -5.6,2.4 C 33.3,55.1 24,51.6 18.8,44.1 15.7,39.7 14.4,34.2 15.4,28.8 16.3,23.6 19.5,18.9 24,16.1 L 51.5,-1.4 c 1.7,-1.1 3.6,-1.9 5.6,-2.5 8.9,-2.3 18.2,1.2 23.4,8.7 3.2,4.4 4.4,9.9 3.5,15.3 -0.2,0.9 -0.4,1.7 -0.7,2.6 l -0.5,1.6 -1.4,-1 C 78.1,20.9 74.5,19.1 70.6,17.9 l -1,-0.3 0.1,-1 C 69.8,15.2 69.4,13.7 68.6,12.5 67,10.2 64.2,9.2 61.5,9.9 c -0.6,0.2 -1.2,0.4 -1.7,0.7 L 32.4,28.1 c -1.4,0.9 -2.3,2.2 -2.6,3.8 -0.3,1.6 0.1,3.3 1,4.6 1.6,2.3 4.4,3.3 7.1,2.6 0.6,-0.2 1.2,-0.4 1.7,-0.7 l 10.5,-6.7 c 1.7,-1.1 3.6,-1.9 5.6,-2.5 8.9,-2.3 18.2,1.2 23.4,8.7 3.2,4.4 4.4,9.9 3.5,15.3 -0.9,5.2 -4.1,9.9 -8.6,12.7 L 46.5,83.4 c -1.7,1.1 -3.6,1.9 -5.6,2.5"
     class="st1" /></g>
</svg>